<?xml version="1.0" encoding="UTF-8"?>
<svg width="679px" height="278px" viewBox="0 0 679 278" version="1.1" xmlns="http://www.w3.org/2000/svg" xmlns:xlink="http://www.w3.org/1999/xlink">
    <!-- Generator: Sketch 64 (93537) - https://sketch.com -->
    <title>asset-features</title>
    <desc>Created with Sketch.</desc>
    <defs>
        <rect id="path-1" x="325" y="445" width="687" height="358"></rect>
    </defs>
    <g id="Landing" stroke="none" stroke-width="1" fill="none" fill-rule="evenodd">
        <g id="Landing---QGX" transform="translate(0.000000, -2333.000000)">
            <g id="Features" transform="translate(-325.000000, 1888.000000)">
                <g id="Title">
                    <g id="asset-features">
                        <mask id="mask-2" fill="white">
                            <use xlink:href="#path-1"></use>
                        </mask>
                        <g id="Rectangle"></g>
                        <path d="M29.97159,458.849986 L540.251675,720.190552 C549.374339,724.862736 560.457295,723.225969 567.839967,716.116224 L802.076332,490.539244 C811.62373,481.3448 811.909855,466.151534 802.715411,456.604136 C800.939522,454.760075 798.880017,453.212038 796.61499,452.018725 L291.819523,186.070977 C282.672583,181.25198 271.467549,182.832245 264.010132,189.992984 L24.2891492,420.177146 C14.7283166,429.35762 14.419975,444.550451 23.600449,454.111284 C25.4463264,456.033638 27.5995012,457.635118 29.97159,458.849986 Z" id="Path" fill="#FFB200" mask="url(#mask-2)"></path>
                        <path d="M286.968723,300.158869 L837.601826,582.18943 C846.724919,586.862217 857.808686,585.225287 865.191539,578.114784 L1119.07916,333.592954 C1128.62618,324.398118 1128.91169,309.204841 1119.71685,299.65782 C1117.9413,297.814266 1115.88228,296.266605 1113.61783,295.073497 L568.905204,8.07213246 C559.757842,3.25251715 548.551985,4.83293955 541.094384,11.994442 L281.286284,261.487074 C271.725827,270.667941 271.418109,285.860784 280.598975,295.42124 C282.444516,297.343087 284.597207,298.944194 286.968723,300.158869 Z" id="Path" fill="#FF6900" mask="url(#mask-2)"></path>
                    </g>
                </g>
            </g>
        </g>
    </g>
</svg>