<?xml version="1.0" encoding="UTF-8"?>
<svg width="658px" height="212px" viewBox="0 0 658 212" version="1.1" xmlns="http://www.w3.org/2000/svg" xmlns:xlink="http://www.w3.org/1999/xlink">
    <!-- Generator: Sketch 64 (93537) - https://sketch.com -->
    <title>Group 5</title>
    <desc>Created with Sketch.</desc>
    <g id="Review-Board" stroke="none" stroke-width="1" fill="none" fill-rule="evenodd">
        <g id="Landing---QGX" transform="translate(-782.000000, -4200.000000)">
            <g id="Pool" transform="translate(0.000000, 4200.000000)">
                <g id="Path-+-Path-Mask">
                    <g id="Group-5" transform="translate(412.183681, -604.932315)">
                        <path d="M113.97159,470.849986 L624.251675,732.190552 C633.374339,736.862736 644.457295,735.225969 651.839967,728.116224 L886.076332,502.539244 C895.62373,493.3448 895.909855,478.151534 886.715411,468.604136 C884.939522,466.760075 882.880017,465.212038 880.61499,464.018725 L375.819523,198.070977 C366.672583,193.25198 355.467549,194.832245 348.010132,201.992984 L108.289149,432.177146 C98.7283166,441.35762 98.419975,456.550451 107.600449,466.111284 C109.446326,468.033638 111.599501,469.635118 113.97159,470.849986 Z" id="Path" fill="#FFB200" transform="translate(497.000000, 465.000000) rotate(33.000000) translate(-497.000000, -465.000000) "></path>
                        <path d="M410.720143,493.960322 L961.353247,775.990883 C970.476339,780.66367 981.560107,779.02674 988.942959,771.916237 L1242.83058,527.394408 C1252.3776,518.199572 1252.66311,503.006294 1243.46827,493.459273 C1241.69272,491.615719 1239.6337,490.068058 1237.36925,488.87495 L692.656625,201.873586 C683.509263,197.05397 672.303405,198.634393 664.845805,205.795895 L405.037704,455.288528 C395.477248,464.469394 395.169529,479.662237 404.350395,489.222694 C406.195937,491.14454 408.348628,492.745648 410.720143,493.960322 Z" id="Path" fill="#FF6900" transform="translate(823.751421, 488.801453) rotate(33.000000) translate(-823.751421, -488.801453) "></path>
                    </g>
                </g>
            </g>
        </g>
    </g>
</svg>