<?xml version="1.0" encoding="UTF-8"?>
<svg width="671px" height="671px" viewBox="0 0 671 671" version="1.1" xmlns="http://www.w3.org/2000/svg" xmlns:xlink="http://www.w3.org/1999/xlink">
    <!-- Generator: Sketch 64 (93537) - https://sketch.com -->
    <title>Artboard Copy</title>
    <desc>Created with Sketch.</desc>
    <defs>
        <rect id="path-1" x="94.4" y="0.8" width="213" height="213" rx="9.6"></rect>
        <filter x="-158.0%" y="-126.5%" width="416.0%" height="416.0%" filterUnits="objectBoundingBox" id="filter-2">
            <feOffset dx="0" dy="67" in="SourceAlpha" result="shadowOffsetOuter1"></feOffset>
            <feGaussianBlur stdDeviation="101" in="shadowOffsetOuter1" result="shadowBlurOuter1"></feGaussianBlur>
            <feColorMatrix values="0 0 0 0 1   0 0 0 0 0.411764706   0 0 0 0 0  0 0 0 0.39682583 0" type="matrix" in="shadowBlurOuter1"></feColorMatrix>
        </filter>
        <rect id="path-3" x="31" y="32" width="245" height="245" rx="9.6"></rect>
        <filter x="-139.0%" y="-111.6%" width="378.0%" height="378.0%" filterUnits="objectBoundingBox" id="filter-4">
            <feMorphology radius="4" operator="dilate" in="SourceAlpha" result="shadowSpreadOuter1"></feMorphology>
            <feOffset dx="0" dy="67" in="shadowSpreadOuter1" result="shadowOffsetOuter1"></feOffset>
            <feGaussianBlur stdDeviation="101" in="shadowOffsetOuter1" result="shadowBlurOuter1"></feGaussianBlur>
            <feComposite in="shadowBlurOuter1" in2="SourceAlpha" operator="out" result="shadowBlurOuter1"></feComposite>
            <feColorMatrix values="0 0 0 0 1   0 0 0 0 0.662745098   0 0 0 0 0  0 0 0 0.189576049 0" type="matrix" in="shadowBlurOuter1"></feColorMatrix>
        </filter>
    </defs>
    <g id="Page-1" stroke="none" stroke-width="1" fill="none" fill-rule="evenodd">
        <g id="Artboard" transform="translate(-1249.000000, -412.000000)">
            <g id="Group-7" transform="translate(1431.000000, 593.000000)">
                <g id="Rectangle">
                    <use fill="black" fill-opacity="1" filter="url(#filter-2)" xlink:href="#path-1"></use>
                    <use fill="#FF6900" fill-rule="evenodd" xlink:href="#path-1"></use>
                </g>
                <g id="Rectangle">
                    <use fill="black" fill-opacity="1" filter="url(#filter-4)" xlink:href="#path-3"></use>
                    <use stroke="#FFFFFF" stroke-width="8" fill="#FFB200" fill-rule="evenodd" xlink:href="#path-3"></use>
                </g>
                <g id="Outlined-/-Icon" transform="translate(0.000000, 1.000000)" stroke="#FFFFFF">
                    <g id="icon" transform="translate(56.007843, 56.007843)">
                        <path d="M42.5289573,44.8684773 L20.8137573,44.8684773 C19.5177573,44.8684773 18.4713573,43.8220773 18.4713573,42.5308773 L18.4713573,20.8108773 C18.4713573,19.5196773 19.5177573,18.4684773 20.8137573,18.4684773 L42.5289573,18.4684773 C43.8249573,18.4684773 44.8713573,19.5196773 44.8713573,20.8108773 L44.8713573,42.5308773 C44.8713573,43.8220773 43.8249573,44.8684773 42.5289573,44.8684773 Z" id="Stroke-1" stroke-width="5.98533094" stroke-linecap="round"></path>
                        <path d="M60.6062373,62.9481573 L2.73263733,62.9481573 C1.44143733,62.9481573 0.395037328,61.9017573 0.395037328,60.6057573 L0.395037328,2.73215733 C0.395037328,1.44095733 1.44143733,0.389757328 2.73263733,0.389757328 L60.6062373,0.389757328 C61.9022373,0.389757328 62.9486373,1.44095733 62.9486373,2.73215733 L62.9486373,60.6057573 C62.9486373,61.9017573 61.9022373,62.9481573 60.6062373,62.9481573 Z" id="Stroke-3" stroke-width="5.98533094" stroke-linecap="round"></path>
                        <path d="M176.938077,44.8684773 L155.222877,44.8684773 C153.926877,44.8684773 152.880477,43.8220773 152.880477,42.5308773 L152.880477,20.8108773 C152.880477,19.5196773 153.926877,18.4684773 155.222877,18.4684773 L176.938077,18.4684773 C178.234077,18.4684773 179.280477,19.5196773 179.280477,20.8108773 L179.280477,42.5308773 C179.280477,43.8220773 178.234077,44.8684773 176.938077,44.8684773 Z" id="Stroke-5" stroke-width="5.98533094" stroke-linecap="round"></path>
                        <path d="M195.017757,62.9481573 L137.139357,62.9481573 C135.852957,62.9481573 134.801757,61.9017573 134.801757,60.6057573 L134.801757,2.73215733 C134.801757,1.44095733 135.852957,0.389757328 137.139357,0.389757328 L195.017757,0.389757328 C196.313757,0.389757328 197.355357,1.44095733 197.355357,2.73215733 L197.355357,60.6057573 C197.355357,61.9017573 196.313757,62.9481573 195.017757,62.9481573 Z" id="Stroke-7" stroke-width="5.98533094" stroke-linecap="round"></path>
                        <path d="M42.6321573,179.519517 L20.9169573,179.519517 C19.6209573,179.519517 18.5745573,178.473117 18.5745573,177.181917 L18.5745573,155.461917 C18.5745573,154.170717 19.6209573,153.119517 20.9169573,153.119517 L42.6321573,153.119517 C43.9281573,153.119517 44.9745573,154.170717 44.9745573,155.461917 L44.9745573,177.181917 C44.9745573,178.473117 43.9281573,179.519517 42.6321573,179.519517 Z" id="Stroke-9" stroke-width="5.98533094" stroke-linecap="round"></path>
                        <path d="M60.7118373,197.599197 L2.83823733,197.599197 C1.54223733,197.599197 0.495837328,196.547997 0.495837328,195.256797 L0.495837328,137.383197 C0.495837328,136.091997 1.54223733,135.045597 2.83823733,135.045597 L60.7118373,135.045597 C62.0030373,135.045597 63.0494373,136.091997 63.0494373,137.383197 L63.0494373,195.256797 C63.0494373,196.547997 62.0030373,197.599197 60.7118373,197.599197 Z" id="Stroke-11" stroke-width="5.98533094" stroke-linecap="round"></path>
                        <path d="M177.041277,179.519517 L155.326077,179.519517 C154.030077,179.519517 152.983677,178.473117 152.983677,177.181917 L152.983677,155.461917 C152.983677,154.170717 154.030077,153.119517 155.326077,153.119517 L177.041277,153.119517 C178.337277,153.119517 179.383677,154.170717 179.383677,155.461917 L179.383677,177.181917 C179.383677,178.473117 178.337277,179.519517 177.041277,179.519517 Z" id="Stroke-13" stroke-width="5.98533094" stroke-linecap="round"></path>
                        <path d="M195.120957,197.599197 L137.247357,197.599197 C135.956157,197.599197 134.904957,196.547997 134.904957,195.256797 L134.904957,137.383197 C134.904957,136.091997 135.956157,135.045597 137.247357,135.045597 L195.120957,135.045597 C196.416957,135.045597 197.458557,136.091997 197.458557,137.383197 L197.458557,195.256797 C197.458557,196.547997 196.416957,197.599197 195.120957,197.599197 Z" id="Stroke-15" stroke-width="5.98533094" stroke-linecap="round"></path>
                        <path d="M85.6795173,9.89039733 L85.6795173,2.73359733 C85.6795173,1.44239733 86.7307173,0.391197328 88.0219173,0.391197328 L109.737117,0.391197328 C111.033117,0.391197328 112.079517,1.44239733 112.079517,2.73359733 L112.079517,17.0519973 C112.079517,18.3431973 111.033117,19.3895973 109.737117,19.3895973 L99.7339173,19.3895973" id="Stroke-17" stroke-width="5.98533094" stroke-linecap="square"></path>
                        <path d="M179.281917,99.3441573 L179.281917,90.0705573 C179.281917,88.4001573 177.520317,87.0417573 175.345917,87.0417573 L138.837117,87.0417573 C136.667517,87.0417573 134.905917,88.4001573 134.905917,90.0705573 L134.905917,108.617757 C134.905917,110.288157 136.667517,111.646557 138.837117,111.646557 L167.397117,111.646557" id="Stroke-19" stroke-width="5.98533094" stroke-linecap="square"></path>
                        <path d="M100.836477,179.416317 L110.110077,179.416317 C111.780477,179.416317 113.138877,177.654717 113.138877,175.485117 L113.138877,138.976317 C113.138877,136.801917 111.780477,135.045117 110.110077,135.045117 L91.5676773,135.045117 C89.8924773,135.045117 88.5340773,136.801917 88.5340773,138.976317 L88.5340773,167.531517" id="Stroke-21" stroke-width="5.98533094" stroke-linecap="square"></path>
                        <path d="M28.5998373,87.0422373 L42.7358373,87.0422373 C44.0270373,87.0422373 45.0782373,88.0886373 45.0782373,89.3846373 L45.0782373,109.304637 C45.0782373,110.600637 44.0270373,111.642237 42.7358373,111.642237 L20.8094373,111.642237 C19.5182373,111.642237 18.4718373,110.600637 18.4718373,109.304637 L18.4718373,100.919037" id="Stroke-23" stroke-width="5.98533094" stroke-linecap="square"></path>
                        <path d="M112.081917,87.0422373 L112.081917,109.559037 C112.081917,110.711037 111.169917,111.642237 110.037117,111.642237 L64.9987173,111.642237 C63.8659173,111.642237 62.9539173,110.706237 62.9586985,109.549437 L63.0403173,89.1206373 C63.0451173,87.9686373 63.9571173,87.0422373 65.0803173,87.0422373 L86.2867173,87.0422373 L86.2867173,45.6518373 C86.2867173,44.5046373 87.1987173,43.5686373 88.3267173,43.5686373 L110.037117,43.5686373 C111.169917,43.5686373 112.081917,44.5046373 112.081917,45.6518373 L112.081917,66.3542373" id="Stroke-25" stroke-width="5.98533094" stroke-linecap="square"></path>
                    </g>
                </g>
            </g>
        </g>
    </g>
</svg>