<?xml version="1.0" encoding="UTF-8"?>
<svg width="95px" height="78px" viewBox="0 0 95 78" version="1.1" xmlns="http://www.w3.org/2000/svg" xmlns:xlink="http://www.w3.org/1999/xlink">
    <!-- Generator: Sketch 64 (93537) - https://sketch.com -->
    <title>icon-emprestimo</title>
    <desc>Created with Sketch.</desc>
    <g id="Page-1" stroke="none" stroke-width="1" fill="none" fill-rule="evenodd">
        <g id="Landing---QGX" transform="translate(-146.000000, -3954.000000)" stroke="#FFFFFF">
            <g id="Group-11" transform="translate(146.000000, 3667.000000)">
                <g id="icon" transform="translate(0.000000, 278.000000)">
                    <g id="Outlined-/-icon">
                        <g id="icon" transform="translate(1.500000, 10.500000)">
                            <g id="Group-9" transform="translate(0.000000, 37.869160)" stroke-width="1.87041592">
                                <path d="M15.6396157,5.34978108 L20.4679813,4.50304029 C26.7676903,3.38572703 33.2631157,4.59643587 38.7202724,7.90579828 L41.2180858,9.42072948 C42.2903619,10.0710649 43.523653,10.4151177 44.7812351,10.4151177 L60.2469963,10.4151177 C62.774653,10.4151177 64.8234291,12.4423511 64.8234291,14.9434297 C64.8234291,17.4438216 62.774653,19.471055 60.2469963,19.471055 L41.2305784,19.471055 C38.6473993,19.471055 36.5528172,21.5436128 36.5528172,24.09963" id="Stroke-1" stroke-linecap="round"></path>
                                <polyline id="Stroke-3" stroke-linecap="round" points="0.346876119 0.135286241 15.5815254 0.135286241 15.5815254 32.7454509 0.346876119 32.7454509"></polyline>
                                <path d="M15.572156,25.4092283 L41.2970664,35.9285919 C47.216447,38.3493229 53.9506187,37.8136717 59.4029172,34.4885145 L90.2011858,15.7063892 C92.6247381,14.2285415 93.3014172,11.0427909 91.6843276,8.72438305 C90.3781634,6.85372457 87.9469769,6.11205381 85.8038127,6.93063857 L64.8232903,14.9434297" id="Stroke-5"></path>
                                <line x1="5.92791716" y1="27.286342" x2="9.83653846" y2="27.286342" id="Stroke-7" stroke-linecap="round"></line>
                            </g>
                            <g id="Group-16" transform="translate(32.619403, 0.098889)">
                                <path d="M39.2752187,19.4489423 C39.2752187,30.0562076 30.5706963,38.6554681 19.8333604,38.6554681 C9.09880075,38.6554681 0.394278358,30.0562076 0.394278358,19.4489423 C0.394278358,8.8416769 9.09880075,0.244476658 19.8333604,0.244476658 C30.5706963,0.244476658 39.2752187,8.8416769 39.2752187,19.4489423 Z" id="Stroke-10" stroke-width="1.87041592" stroke-linecap="square"></path>
                                <path d="M19.8347485,0.244545332 C19.91282,0.243171867 26.4168578,0.244545332 26.4949292,0.244545332 C36.6448733,0.244545332 44.87321,8.84174558 44.87321,19.4490109 C44.87321,30.0562763 36.6448733,38.6557922 26.4949292,38.6557922 C26.4312911,38.6557922 20.187796,38.6557922 20.1235018,38.6557922" id="Stroke-12" stroke-width="1.87041592" stroke-linecap="square"></path>
                                <g id="$" transform="translate(14.301961, 7.500000)" stroke-linecap="round" stroke-linejoin="round" stroke-width="1.68337439">
                                    <path d="M9.81563933,7.51143 C9.81563933,4.87143 7.74263933,3.49743 5.10263933,3.49743 C2.46263933,3.49743 0.323639332,4.87143 0.323639332,7.51143 C0.323639332,10.15143 1.91363933,10.70043 5.10263933,12.29343 C8.28563933,13.88343 9.87863933,14.43243 9.87863933,17.07243 C9.87863933,19.70943 7.74263933,21.05343 5.10263933,21.05343 C2.46263933,21.05343 0.323639332,19.70943 0.323639332,17.07243" id="Stroke-1"></path>
                                    <line x1="5.10203933" y1="1.12473" x2="5.10203933" y2="3.21573" id="Stroke-3"></line>
                                    <line x1="5.10203933" y1="21.33663" x2="5.10203933" y2="23.42463" id="Stroke-5"></line>
                                </g>
                            </g>
                        </g>
                    </g>
                </g>
            </g>
        </g>
    </g>
</svg>