<?xml version="1.0" encoding="UTF-8"?>
<svg width="74px" height="79px" viewBox="0 0 74 79" version="1.1" xmlns="http://www.w3.org/2000/svg" xmlns:xlink="http://www.w3.org/1999/xlink">
    <!-- Generator: Sketch 64 (93537) - https://sketch.com -->
    <title>icon-recarga</title>
    <desc>Created with Sketch.</desc>
    <defs>
        <path d="M0.54,1.8744186 C0.54,2.70218605 1.20813559,3.37334884 2.03064407,3.37334884 L2.03064407,3.37334884 C2.85498305,3.37334884 3.52128814,2.70218605 3.52128814,1.8744186 L3.52128814,1.8744186 C3.52128814,1.04725581 2.85498305,0.374883721 2.03064407,0.374883721 L2.03064407,0.374883721 C1.20813559,0.374883721 0.54,1.04725581 0.54,1.8744186 L0.54,1.8744186 Z" id="path-1"></path>
    </defs>
    <g id="Page-1" stroke="none" stroke-width="1" fill="none" fill-rule="evenodd">
        <g id="Landing---QGX" transform="translate(-799.000000, -3690.000000)">
            <g id="Group-11" transform="translate(146.000000, 3667.000000)">
                <g id="Group-20" transform="translate(642.000000, 13.000000)">
                    <g id="Outlined-/-Icon">
                        <g id="icon" transform="translate(12.000000, 10.500000)">
                            <path d="M41.3037763,44.9578093 L41.3037763,74.1310186 C41.3037763,75.9643209 39.8259458,77.4505535 38.0021492,77.4505535 L3.60628475,77.4505535 C1.78248814,77.4505535 0.305267797,75.9643209 0.305267797,74.1310186 L0.305267797,6.1398093 C0.305267797,4.30771628 1.78248814,2.82087907 3.60628475,2.82087907 L38.0021492,2.82087907" id="Stroke-1" stroke="#FFFFFF" stroke-width="1.87041592"></path>
                            <g id="Group-6" transform="translate(18.915254, 70.642605)">
                                <mask id="mask-2" fill="white">
                                    <use xlink:href="#path-1"></use>
                                </mask>
                                <use id="Clip-4" fill="#FFFFFF" xlink:href="#path-1"></use>
                            </g>
                            <g id="Group-19" transform="translate(0.000000, 0.503070)" stroke="#FFFFFF">
                                <line x1="0.353898305" y1="67.0535767" x2="41.3188475" y2="67.0535767" id="Stroke-9" stroke-width="1.87041592"></line>
                                <line x1="0.354508475" y1="13.9493628" x2="26.388" y2="13.9493628" id="Stroke-11" stroke-width="1.87041592"></line>
                                <line x1="17.9174441" y1="9.60845116" x2="23.9752068" y2="9.60845116" id="Stroke-13" stroke-width="1.87041592" stroke-linecap="round"></line>
                                <path d="M53.8763186,1.28712093 C66.308522,4.6761907 73.9435729,17.3079581 70.6755051,29.0787023 C67.4080475,40.8476326 54.3266237,47.8325628 41.8944203,44.443493 L39.4781492,43.7850279 C39.1321831,43.6900977 38.4420814,43.5020512 37.9875051,43.7989349 L21.9357763,53.1262837 L29.4280475,38.5118651 C29.7544881,37.3346093 29.6281831,36.4566558 29.0454712,35.8749814 C24.9555051,30.5401442 23.5899458,23.4149349 25.3332,17.1374465 C28.4737424,4.49056279 41.4477763,-2.10134419 53.8763186,1.28712093" id="Stroke-15" stroke-width="1.87041592"></path>
                                <g id="$" transform="translate(42.421364, 10.746930)" stroke-linecap="round" stroke-linejoin="round" stroke-width="1.68337439">
                                    <path d="M9.81563933,7.51143 C9.81563933,4.87143 7.74263933,3.49743 5.10263933,3.49743 C2.46263933,3.49743 0.323639332,4.87143 0.323639332,7.51143 C0.323639332,10.15143 1.91363933,10.70043 5.10263933,12.29343 C8.28563933,13.88343 9.87863933,14.43243 9.87863933,17.07243 C9.87863933,19.70943 7.74263933,21.05343 5.10263933,21.05343 C2.46263933,21.05343 0.323639332,19.70943 0.323639332,17.07243" id="Stroke-1"></path>
                                    <line x1="5.10203933" y1="1.12473" x2="5.10203933" y2="3.21573" id="Stroke-3"></line>
                                    <line x1="5.10203933" y1="21.33663" x2="5.10203933" y2="23.42463" id="Stroke-5"></line>
                                </g>
                            </g>
                        </g>
                    </g>
                </g>
            </g>
        </g>
    </g>
</svg>