<?xml version="1.0" encoding="UTF-8"?>
<svg width="671px" height="671px" viewBox="0 0 671 671" version="1.1" xmlns="http://www.w3.org/2000/svg" xmlns:xlink="http://www.w3.org/1999/xlink">
    <!-- Generator: Sketch 64 (93537) - https://sketch.com -->
    <title>Artboard</title>
    <desc>Created with Sketch.</desc>
    <defs>
        <path d="M74.2362237,278.61568 C87.7574379,285.582113 96.3786967,293.51022 100.1,302.4 C105.495401,315.289015 134.25144,304.990003 140.7,302.4 C153.76049,297.154378 166.125902,286.646408 169.5,286.5 C183.853033,285.877195 191.441864,300.637407 235.9,281.4 C242.431102,278.573937 249.270016,273.509167 256,271 C281.912306,261.33901 307.568692,255.427724 320.6,240.1 C322.781428,237.534154 308.014832,228.852637 310.1,226.1 C314.346209,220.494566 326.860255,213.573909 329.7,207.2 C331.825174,202.429971 318.606447,195.56957 320.6,190.4 C322.498734,185.476311 338.784545,174.519445 340.2,169.4 C341.82577,163.519883 332.538396,160.932845 333.9,154.7 C334.161137,153.504627 346.065847,147.605655 351.4,141.4 C351.4,141.4 351.4,141.4 351.4,141.4 C354.511286,137.780387 354.099206,132.323914 350.479593,129.212628 C349.758095,128.592455 348.939144,128.095674 348.055791,127.742316 L340.2,124.6 L340.2,124.6 L202.928143,107.82923 C192.088045,106.504874 181.280525,110.531393 173.949503,118.625697 C166.192912,127.189879 157.443077,136.64798 147.7,147 C139.551928,155.657326 132.534394,212.083166 114.8,215.6 C111.386341,216.276949 117.551422,205.475558 100.1,206.5 C99.1496154,206.55579 90.6250902,210.632648 74.5264241,218.730573 L74.5264246,218.730574 C57.9488113,227.069419 51.2699698,247.2682 59.6088147,263.845813 C62.8008128,270.191501 67.9217694,275.362331 74.2362237,278.61568 Z" id="path-1"></path>
        <filter x="-43.5%" y="-81.8%" width="202.6%" height="305.9%" filterUnits="objectBoundingBox" id="filter-2">
            <feOffset dx="0" dy="42" in="SourceAlpha" result="shadowOffsetOuter1"></feOffset>
            <feGaussianBlur stdDeviation="63" in="shadowOffsetOuter1" result="shadowBlurOuter1"></feGaussianBlur>
            <feColorMatrix values="0 0 0 0 1   0 0 0 0 0.662745098   0 0 0 0 0  0 0 0 0.189576049 0" type="matrix" in="shadowBlurOuter1"></feColorMatrix>
        </filter>
        <path d="M179.629335,251.452159 L265.146147,278.277612 C270.981597,280.108117 277.288896,277.483831 280.103629,272.054235 C282.551008,267.333263 283.849799,264.481851 284,263.5 C285.398483,254.358268 280.719513,243.80871 282,240.5 C284.171699,234.888447 298.557537,227.111302 299,224.5 C299.588629,221.026067 293.079183,219.6511 291.5,217 C289.433843,213.531377 292.001556,209.077877 291.5,207 C290.641748,203.444383 307.478603,191.001326 308,189 C308.743975,186.144333 305.157586,185.846777 303.5,183.5 C301.586957,180.791552 301.527168,176.1409 302,174.5 C303.106899,170.658658 307.229707,167.100615 308,164.5 C308.866955,161.573041 317.286637,158.074708 318,155.5 C319.437144,150.312982 313.268927,152.958886 314,149.5 C315.876223,140.623121 315.876223,137.789787 314,141 C315.524182,135.245 316.857515,131.745 318,130.5 C319.851864,128.481969 321.740612,136.253873 325,128 C330.464012,114.163273 338.549174,89.9350426 349.255485,55.3153097 C351.996777,46.4511262 347.03319,37.0430306 338.169006,34.3017409 C338.150924,34.2961493 338.132834,34.2905881 338.114734,34.2850576 L231.947211,1.844981 C229.835677,1.19978264 227.585102,2.29963496 226.796745,4.36199963 C207.758819,54.1657509 196.993237,87.3784177 194.5,104 C193,114 198.988177,131.952606 196,142 C191.964118,155.570177 182.301203,167.232799 178.5,179 C176.270276,185.902449 182.364297,199.164217 182.5,212 C182.635064,224.775394 176.810894,237.129683 175,242 C175,242 175,242 175,242 C173.603381,245.756143 175.516154,249.933281 179.272296,251.329899 C179.390227,251.373748 179.509278,251.414523 179.629335,251.452159 Z" id="path-3"></path>
        <filter x="-117.3%" y="-59.5%" width="332.1%" height="248.4%" filterUnits="objectBoundingBox" id="filter-4">
            <feOffset dx="0" dy="42" in="SourceAlpha" result="shadowOffsetOuter1"></feOffset>
            <feGaussianBlur stdDeviation="63" in="shadowOffsetOuter1" result="shadowBlurOuter1"></feGaussianBlur>
            <feColorMatrix values="0 0 0 0 1   0 0 0 0 0.411764706   0 0 0 0 0  0 0 0 0.39682583 0" type="matrix" in="shadowBlurOuter1"></feColorMatrix>
        </filter>
    </defs>
    <g id="Page-1" stroke="none" stroke-width="1" fill="none" fill-rule="evenodd">
        <g id="Artboard" transform="translate(-452.000000, -412.000000)">
            <g id="Group-5" transform="translate(597.000000, 573.000000)">
                <g id="Group-4" transform="translate(0.000000, 29.000000)">
                    <g id="Path">
                        <use fill="black" fill-opacity="1" filter="url(#filter-2)" xlink:href="#path-1"></use>
                        <use fill="#FFB200" fill-rule="evenodd" xlink:href="#path-1"></use>
                    </g>
                    <g id="Path">
                        <use fill="black" fill-opacity="1" filter="url(#filter-4)" xlink:href="#path-3"></use>
                        <use fill="#FF6900" fill-rule="evenodd" xlink:href="#path-3"></use>
                    </g>
                    <polygon id="Path-2" points="220 29.5 346 66.5 352 42.5 230 4"></polygon>
                </g>
                <g id="Outlined-/-Icon" transform="translate(32.000000, 0.000000)">
                    <g id="icon" transform="translate(36.025483, 29.753488)" stroke="#FFFFFF" stroke-linecap="round">
                        <g id="Group-25" transform="translate(0.000000, 0.515057)" stroke-width="6.80831395">
                            <path d="M276.022485,146.989221 L263.250661,152.575963 C256.294411,155.610622 248.085288,152.446039 245.018554,145.541493 C241.95182,138.627668 245.140101,130.488842 252.096351,127.444903 L264.877526,121.85816 C271.843125,118.823501 280.042899,121.988084 283.109632,128.89263 C286.167017,135.806456 282.978735,143.945281 276.022485,146.989221 Z" id="Stroke-1"></path>
                            <path d="M265.220663,181.219618 L252.458188,186.797081 C245.492589,189.84102 237.292815,186.676437 234.226082,179.771891 C231.149998,172.858065 234.338279,164.709959 241.303879,161.6753 L254.085053,156.088558 C261.041303,153.044618 269.241077,156.209202 272.30781,163.123028 C275.374544,170.027573 272.186263,178.175679 265.220663,181.219618 Z" id="Stroke-3"></path>
                            <path d="M254.382377,215.585509 L241.610552,221.172251 C234.654302,224.20691 226.445179,221.042327 223.378445,214.137781 C220.311712,207.223956 223.499993,199.08513 230.456243,196.04119 L243.237417,190.454448 C250.193667,187.410509 258.40279,190.584372 261.469524,197.488918 C264.526908,204.393463 261.338627,212.541569 254.382377,215.585509 Z" id="Stroke-5"></path>
                            <path d="M243.58149,249.806626 L230.819015,255.393368 C223.853415,258.437308 215.653642,255.272725 212.586908,248.358899 C209.510825,241.454353 212.699106,233.306247 219.664706,230.271588 L232.44588,224.684846 C239.40213,221.640906 247.601903,224.80549 250.668637,231.710035 C253.735371,238.623861 250.54709,246.762687 243.58149,249.806626 Z" id="Stroke-7"></path>
                            <path d="M28.2799425,276.215584 L0.46429226,221.619562 C0.0716007282,220.858577 0.389493873,219.921266 1.16552714,219.540774 L35.3577398,202.678463 C36.1150735,202.297971 37.0407036,202.59494 37.4333951,203.337365 L83.8738437,290.256683 C84.2665352,290.999107 85.1921652,291.296077 85.9588487,290.915584 L102.881984,282.424107 C114.868425,291.602327 133.399726,293.662554 158.672231,281.523918 L178.288108,270.935092" id="Stroke-9"></path>
                            <path d="M98.3856657,256.078255 L100.302374,253.507611 C116.945016,231.1328 120.591437,201.751361 109.932667,176.026361 L124.359406,151.711967 C132.147788,138.598899 133.241714,122.618217 127.313942,108.577118 C126.341563,106.275603 124.396805,104.512346 121.993907,103.769922 C118.534481,102.693406 114.766513,103.909126 112.606709,106.7953 L83.3137907,145.809694 C77.8722081,153.057611 73.8611446,161.279959 71.5143452,170.022005 L65.8390176,191.162535 C64.660943,195.524278 62.2112958,199.440565 58.7986194,202.428823 L43.8950407,215.430528" id="Stroke-11"></path>
                            <line x1="32.4022686" y1="231.499372" x2="25.8574097" y2="234.691797" id="Stroke-13"></line>
                            <path d="M217.860194,255.715395 L214.129625,267.557062 C211.820225,274.86066 204.003793,278.925433 196.636152,276.642478 L104.101198,247.873539" id="Stroke-15"></path>
                            <path d="M125.782445,104.946664 L150.559411,26.3981791 L155.655051,10.2690124 C157.955101,2.97469423 165.780882,-1.09007849 173.139174,1.19287605 L273.686906,32.4489367 C281.035847,34.7318912 285.131059,42.4995048 282.821659,49.8031033 L259.334965,124.286815" id="Stroke-17"></path>
                            <line x1="143.660194" y1="238.46888" x2="161.555709" y2="244.037062" id="Stroke-19"></line>
                            <line x1="277.739108" y1="65.9220617" x2="150.563151" y2="26.3972511" id="Stroke-21"></line>
                            <line x1="210.592596" y1="240.689656" x2="115.79499" y2="211.224694" id="Stroke-23"></line>
                        </g>
                    </g>
                    <g id="Group" transform="translate(228.336223, 148.484536) rotate(19.000000) translate(-228.336223, -148.484536) translate(172.912259, 87.839474)" fill="#FFFFFF">
                        <circle id="Oval" opacity="0.483561198" cx="17.0555248" cy="16.40625" r="16.40625"></circle>
                        <rect id="Rectangle" opacity="0.35063244" x="44.3992748" y="10.9375" width="65.625" height="10.9375" rx="5.46875"></rect>
                        <path d="M7.21898166,43.7520823 L102.977354,43.7520823 C106.737482,43.7520823 109.785668,46.8002683 109.785668,50.5603962 L109.785668,58.8187683 C109.785668,62.5788963 106.737482,65.6270823 102.977354,65.6270823 L7.21898166,65.6270823 C3.45885369,65.6270823 0.410667713,62.5788963 0.410667713,58.8187683 L0.410667713,50.5603962 C0.410667713,46.8002683 3.45885369,43.7520823 7.21898166,43.7520823 Z" id="Rectangle" opacity="0.156575521" transform="translate(55.098168, 54.689582) rotate(-1.000000) translate(-55.098168, -54.689582) "></path>
                        <path d="M7.6961959,71.0916677 L103.454568,71.0916677 C107.214696,71.0916677 110.262882,74.1398537 110.262882,77.8999817 L110.262882,86.1583538 C110.262882,89.9184817 107.214696,92.9666677 103.454568,92.9666677 L7.6961959,92.9666677 C3.93606793,92.9666677 0.887881952,89.9184817 0.887881952,86.1583538 L0.887881952,77.8999817 C0.887881952,74.1398537 3.93606793,71.0916677 7.6961959,71.0916677 Z" id="Rectangle" opacity="0.191615513" transform="translate(55.575382, 82.029168) rotate(-1.000000) translate(-55.575382, -82.029168) "></path>
                        <path d="M40.2198686,98.1515879 L103.165741,98.1515879 C106.925869,98.1515879 109.974055,101.199774 109.974055,104.959902 L109.974055,113.218274 C109.974055,116.978402 106.925869,120.026588 103.165741,120.026588 L40.2198686,120.026588 C36.4597406,120.026588 33.4115547,116.978402 33.4115547,113.218274 L33.4115547,104.959902 C33.4115547,101.199774 36.4597406,98.1515879 40.2198686,98.1515879 Z" id="Rectangle" opacity="0.390834263" transform="translate(71.692805, 109.089088) rotate(-1.000000) translate(-71.692805, -109.089088) "></path>
                    </g>
                </g>
            </g>
        </g>
    </g>
</svg>