<?xml version="1.0" encoding="UTF-8"?>
<svg width="671px" height="671px" viewBox="0 0 671 671" version="1.1" xmlns="http://www.w3.org/2000/svg" xmlns:xlink="http://www.w3.org/1999/xlink">
    <!-- Generator: Sketch 64 (93537) - https://sketch.com -->
    <title>Artboard Copy 2</title>
    <desc>Created with Sketch.</desc>
    <defs>
        <rect id="path-1" x="42" y="104" width="165" height="168" rx="13.5"></rect>
        <filter x="-190.9%" y="-150.0%" width="481.8%" height="475.0%" filterUnits="objectBoundingBox" id="filter-2">
            <feOffset dx="0" dy="63" in="SourceAlpha" result="shadowOffsetOuter1"></feOffset>
            <feGaussianBlur stdDeviation="94.5" in="shadowOffsetOuter1" result="shadowBlurOuter1"></feGaussianBlur>
            <feColorMatrix values="0 0 0 0 1   0 0 0 0 0.662745098   0 0 0 0 0  0 0 0 0.189576049 0" type="matrix" in="shadowBlurOuter1"></feColorMatrix>
        </filter>
        <path d="M128.25,278.75 C128.25,286.25 137.932145,314.917774 143.25,326.75 C148.567855,338.582226 146.22298,336.534403 158.25,345.5 C170.27702,354.465597 166.810704,355.581884 184.5,357.5 C202.189296,359.418116 207.331114,359.084485 220.5,352.25 C233.668886,345.415515 237.544999,337.919002 243.75,326.75 C249.955001,315.580998 249.117593,321.750915 250.5,298.25 C251.882407,274.749085 251.636323,261.976293 248.25,253.25 C244.863677,244.523707 234.307869,246.97342 231,248 C227.692131,249.02658 229.157722,260.382556 226.5,257 C223.842278,253.617444 226.130197,241.894257 222.75,237.5 C219.369803,233.105743 214.564915,235.894568 211.5,237.5 C208.435085,239.105432 210.672108,248.687687 207,245.75 C203.327892,242.812313 204.026752,232.276752 200.25,228.5 C196.473248,224.723248 192.888461,227.154945 189.75,228.5 C186.611539,229.845055 186.678948,253.304143 184.5,235.25 C182.321052,217.195857 186.181544,193.197529 184.5,185 C182.818456,176.802471 179.538441,176.75 172.5,176.75 C165.461559,176.75 162.43723,173.09945 158.25,185 C154.06277,196.90055 158.25,180.875 158.25,217.25 C158.25,253.625 158.91899,284.514285 158.25,290 C157.58101,295.485715 153.561452,283.380626 150.75,278.75 C147.938548,274.119374 149.522491,271.614619 145.5,269 C141.477509,266.385381 140.11424,266.533256 135.75,269 C131.38576,271.466744 128.25,271.25 128.25,278.75 Z" id="path-3"></path>
        <filter x="-256.0%" y="-138.2%" width="612.0%" height="445.6%" filterUnits="objectBoundingBox" id="filter-4">
            <feOffset dx="0" dy="63" in="SourceAlpha" result="shadowOffsetOuter1"></feOffset>
            <feGaussianBlur stdDeviation="94.5" in="shadowOffsetOuter1" result="shadowBlurOuter1"></feGaussianBlur>
            <feColorMatrix values="0 0 0 0 1   0 0 0 0 0.411764706   0 0 0 0 0  0 0 0 0.39682583 0" type="matrix" in="shadowBlurOuter1"></feColorMatrix>
        </filter>
    </defs>
    <g id="Page-1" stroke="none" stroke-width="1" fill="none" fill-rule="evenodd">
        <g id="Artboard" transform="translate(-2046.000000, -412.000000)">
            <g id="Group-9" transform="translate(2241.000000, 563.000000)">
                <g id="Rectangle">
                    <use fill="black" fill-opacity="1" filter="url(#filter-2)" xlink:href="#path-1"></use>
                    <use fill="#FFB200" fill-rule="evenodd" xlink:href="#path-1"></use>
                </g>
                <g id="Path-3">
                    <use fill="black" fill-opacity="1" filter="url(#filter-4)" xlink:href="#path-3"></use>
                    <use fill="#FF6900" fill-rule="evenodd" xlink:href="#path-3"></use>
                </g>
                <g id="Group-8">
                    <g id="Outlined-/-Icon" transform="translate(0.000000, 87.500000)" stroke="#FFFFFF">
                        <g id="icon" transform="translate(42.012009, 15.879778)">
                            <path d="M142.473766,159.417435 L142.473766,87.2430598 C142.473766,80.4678025 137.624742,74.2938687 130.913486,73.6147878 C123.201473,72.8372143 116.696559,78.9074716 116.696559,86.5017731 L116.696559,186.876148 C116.696559,187.798869 115.427559,188.042508 115.081937,187.187177 L108.984547,171.920817 C106.652888,166.089016 100.117022,163.191258 94.2569247,165.384016 C88.5464247,167.519751 85.482254,173.755891 87.251632,179.613611 L97.4449003,213.256626 C105.399364,239.517876 130.892852,256.318648 158.037071,253.177251 C187.105425,249.807766 208.822864,224.712876 208.110986,195.315413 L207.120547,154.954163 C206.976108,148.951295 202.090973,144.166626 196.117388,144.166626 C190.040632,144.166626 185.11423,149.117177 185.11423,155.223722 L185.11423,166.073464" id="Stroke-16" stroke-width="5.61124776" stroke-linecap="round"></path>
                            <path d="M185.112166,166.074501 L184.214581,143.43156 C184.085617,137.428692 179.644117,132.644023 174.222495,132.644023 C168.697703,132.644023 164.225252,137.594575 164.225252,143.701119 L164.225252,159.734685" id="Stroke-18" stroke-width="5.61124776" stroke-linecap="round"></path>
                            <path d="M164.225767,157.944192 L163.297231,135.301251 C163.163109,129.298383 158.592645,124.513714 153.000792,124.513714 C147.316084,124.513714 142.699194,129.464266 142.699194,135.57081 L142.699194,151.604376" id="Stroke-20" stroke-width="5.61124776" stroke-linecap="round"></path>
                            <path d="M74.0901418,169.304023 L9.71676371,169.304023 C4.470532,169.304023 0.225056392,165.032552 0.225056392,159.765788 L0.225056392,10.2435819 C0.225056392,4.9768172 4.470532,0.710530438 9.71676371,0.710530438 L158.504434,0.710530438 C163.745508,0.710530438 167.996142,4.9768172 167.996142,10.2435819 L167.996142,110.156597" id="Stroke-22" stroke-width="5.61124776" stroke-linecap="round"></path>
                            <path d="M36.7289247,28.9977226 C33.7517031,28.9977226 31.0565307,30.2115632 29.1053307,32.1723279 C27.1504155,34.1368261 25.9419597,36.8508568 25.9419597,39.8478797 C25.9419597,42.8449026 27.1504155,45.5589333 29.1053307,47.5234315 C31.0565307,49.4841962 33.7517031,50.6980368 36.7289247,50.6980368 C39.7061463,50.6980368 42.4013186,49.4841962 44.3525186,47.5234315 C46.3074339,45.5589333 47.5158897,42.8449026 47.5158897,39.8478797 C47.5158897,36.8508568 46.3074339,34.1368261 44.3525186,32.1723279 C42.4013186,30.2115632 39.7061463,28.9977226 36.7289247,28.9977226 Z" id="Stroke-1" stroke-width="4.20843582"></path>
                            <path d="M83.155754,28.9977226 C80.1785323,28.9977226 77.48336,30.2115632 75.53216,32.1723279 C73.5772447,34.1368261 72.3687889,36.8508568 72.3687889,39.8478797 C72.3687889,42.8449026 73.5772447,45.5589333 75.53216,47.5234315 C77.48336,49.4841962 80.1785323,50.6980368 83.155754,50.6980368 C86.1329756,50.6980368 88.8281479,49.4841962 90.7793479,47.5234315 C92.7342632,45.5589333 93.942719,42.8449026 93.942719,39.8478797 C93.942719,36.8508568 92.7342632,34.1368261 90.7793479,32.1723279 C88.8281479,30.2115632 86.1329756,28.9977226 83.155754,28.9977226 Z" id="Stroke-3" stroke-width="4.20843582"></path>
                            <path d="M129.582583,28.9977226 C126.606003,28.9977226 123.912427,30.2111213 121.962565,32.1713257 C120.008281,34.1359761 118.800777,36.8504447 118.800777,39.8478797 C118.800777,42.8453147 120.008281,45.5597833 121.962565,47.5244337 C123.912427,49.4846381 126.606003,50.6980368 129.582583,50.6980368 C132.559805,50.6980368 135.254977,49.4841962 137.206177,47.5234315 C139.161092,45.5589333 140.369548,42.8449026 140.369548,39.8478797 C140.369548,36.8508568 139.161092,34.1368261 137.206177,32.1723279 C135.254977,30.2115632 132.559805,28.9977226 129.582583,28.9977226 Z" id="Stroke-5" stroke-width="4.20843582"></path>
                            <path d="M36.7289247,75.6521344 C33.7517031,75.6521344 31.0565307,76.865975 29.1053307,78.8267397 C27.1504155,80.7912379 25.9419597,83.5052686 25.9419597,86.5022915 C25.9419597,89.4993144 27.1504155,92.2133451 29.1053307,94.1778432 C31.0565307,96.1386079 33.7517031,97.3524486 36.7289247,97.3524486 C39.7061463,97.3524486 42.4013186,96.1386079 44.3525186,94.1778432 C46.3074339,92.2133451 47.5158897,89.4993144 47.5158897,86.5022915 C47.5158897,83.5052686 46.3074339,80.7912379 44.3525186,78.8267397 C42.4013186,76.865975 39.7061463,75.6521344 36.7289247,75.6521344 Z" id="Stroke-7" stroke-width="4.20843582"></path>
                            <path d="M83.155754,75.6521344 C80.1785323,75.6521344 77.48336,76.865975 75.53216,78.8267397 C73.5772447,80.7912379 72.3687889,83.5052686 72.3687889,86.5022915 C72.3687889,89.4993144 73.5772447,92.2133451 75.53216,94.1778432 C77.48336,96.1386079 80.1785323,97.3524486 83.155754,97.3524486 C86.1329756,97.3524486 88.8281479,96.1386079 90.7793479,94.1778432 C92.7342632,92.2133451 93.942719,89.4993144 93.942719,86.5022915 C93.942719,83.5052686 92.7342632,80.7912379 90.7793479,78.8267397 C88.8281479,76.865975 86.1329756,75.6521344 83.155754,75.6521344 Z" id="Stroke-9" stroke-width="4.20843582"></path>
                            <path d="M36.7289247,122.303954 C33.7517031,122.303954 31.0565307,123.517795 29.1053307,125.47856 C27.1504155,127.443058 25.9419597,130.157088 25.9419597,133.154111 C25.9419597,136.151134 27.1504155,138.865165 29.1053307,140.829663 C31.0565307,142.790428 33.7517031,144.004268 36.7289247,144.004268 C39.7061463,144.004268 42.4013186,142.790428 44.3525186,140.829663 C46.3074339,138.865165 47.5158897,136.151134 47.5158897,133.154111 C47.5158897,130.157088 46.3074339,127.443058 44.3525186,125.47856 C42.4013186,123.517795 39.7061463,122.303954 36.7289247,122.303954 Z" id="Stroke-11" stroke-width="4.20843582"></path>
                            <path d="M83.155754,122.303954 C80.1785323,122.303954 77.48336,123.517795 75.53216,125.47856 C73.5772447,127.443058 72.3687889,130.157088 72.3687889,133.154111 C72.3687889,136.151134 73.5772447,138.865165 75.53216,140.829663 C77.48336,142.790428 80.1785323,144.004268 83.155754,144.004268 C86.1329756,144.004268 88.8281479,142.790428 90.7793479,140.829663 C92.7342632,138.865165 93.942719,136.151134 93.942719,133.154111 C93.942719,130.157088 92.7342632,127.443058 90.7793479,125.47856 C88.8281479,123.517795 86.1329756,122.303954 83.155754,122.303954 Z" id="Stroke-13" stroke-width="4.20843582"></path>
                        </g>
                    </g>
                    <path d="M150.28125,97 L150.28125,87.0537109 L115.623047,87.0537109 L133.875,67.5200195 C138.660156,62.324707 142.10376,57.6848145 144.205811,53.6003418 C146.307861,49.5158691 147.358887,45.6108398 147.358887,41.8852539 C147.358887,35.4594727 145.265381,30.4265137 141.078369,26.786377 C136.891357,23.1462402 131.174805,21.3261719 123.928711,21.3261719 C118.904297,21.3261719 114.469482,22.3344727 110.624268,24.3510742 C106.779053,26.3676758 103.82251,29.1960449 101.754639,32.8361816 C99.6867676,36.4763184 98.652832,40.5693359 98.652832,45.1152344 L98.652832,45.1152344 L111.111328,45.1152344 C111.111328,40.8427734 112.222168,37.4760742 114.443848,35.0151367 C116.665527,32.5541992 119.792969,31.3237305 123.826172,31.3237305 C127.209961,31.3237305 129.901611,32.4174805 131.901123,34.6049805 C133.900635,36.7924805 134.900391,39.6635742 134.900391,43.2182617 C134.900391,45.918457 134.139893,48.6101074 132.618896,51.2932129 C131.0979,53.9763184 128.542969,57.3173828 124.954102,61.3164062 L124.954102,61.3164062 L100.088379,88.4379883 L100.088379,97 L150.28125,97 Z M201.909668,97 L201.909668,80.3886719 L211.189453,80.3886719 L211.189453,70.3911133 L201.909668,70.3911133 L201.909668,22.3515625 L189.041016,22.3515625 L156.84375,72.8007812 L157.202637,80.3886719 L189.451172,80.3886719 L189.451172,97 L201.909668,97 Z M189.451172,70.3911133 L169.91748,70.3911133 L188.52832,40.8598633 L189.451172,39.2192383 L189.451172,70.3911133 Z M232.517578,97 L232.517578,57.3686523 C234.978516,52.925293 238.704102,50.7036133 243.694336,50.7036133 C246.907227,50.7036133 249.342529,51.498291 251.000244,53.0876465 C252.657959,54.677002 253.486816,57.3857422 253.486816,61.2138672 L253.486816,61.2138672 L253.486816,97 L265.945312,97 L265.945312,60.7524414 C265.774414,47.2514648 259.775879,40.5009766 247.949707,40.5009766 C241.729004,40.5009766 236.584961,42.859375 232.517578,47.5761719 L232.517578,47.5761719 L232.517578,18.25 L220.059082,18.25 L220.059082,97 L232.517578,97 Z" id="24h" fill="#FFB200" fill-rule="nonzero"></path>
                </g>
            </g>
        </g>
    </g>
</svg>