<?xml version="1.0" encoding="UTF-8"?>
<svg width="73px" height="73px" viewBox="0 0 73 73" version="1.1" xmlns="http://www.w3.org/2000/svg" xmlns:xlink="http://www.w3.org/1999/xlink">
    <!-- Generator: Sketch 64 (93537) - https://sketch.com -->
    <title>icon-api</title>
    <desc>Created with Sketch.</desc>
    <g id="Page-1" stroke="none" stroke-width="1" fill="none" fill-rule="evenodd" stroke-linecap="round">
        <g id="Landing---QGX" transform="translate(-796.000000, -3949.000000)" stroke="#FFFFFF">
            <g id="Group-11" transform="translate(146.000000, 3667.000000)">
                <g id="Outlined-/-Icon" transform="translate(639.000000, 271.000000)">
                    <g id="icon" transform="translate(12.000000, 12.000000)">
                        <path d="M46.91115,35.8122 C46.91115,41.8632 42.00465,46.7697 35.95365,46.7697 C29.90265,46.7697 24.99765,41.8632 24.99765,35.8122 C24.99765,29.7612 29.90265,24.8547 35.95365,24.8547 C42.00465,24.8547 46.91115,29.7612 46.91115,35.8122 Z" id="Stroke-1" stroke-width="1.87599925"></path>
                        <path d="M70.84965,9.147 C70.84965,13.785 67.08915,17.544 62.45115,17.544 C57.81465,17.544 54.05565,13.785 54.05565,9.147 C54.05565,4.509 57.81465,0.75 62.45115,0.75 C67.08915,0.75 70.84965,4.509 70.84965,9.147 Z" id="Stroke-3" stroke-width="1.87599925"></path>
                        <path d="M14.0211,9.11685 C14.0211,11.80335 11.8431,13.98135 9.1566,13.98135 C6.4701,13.98135 4.2921,11.80335 4.2921,9.11685 C4.2921,6.43035 6.4701,4.25235 9.1566,4.25235 C11.8431,4.25235 14.0211,6.43035 14.0211,9.11685 Z" id="Stroke-5" stroke-width="1.87599925"></path>
                        <path d="M12.4302,35.7141 C12.4302,37.1661 11.2527,38.3436 9.8007,38.3436 C8.3472,38.3436 7.1712,37.1661 7.1712,35.7141 C7.1712,34.2621 8.3472,33.0846 9.8007,33.0846 C11.2527,33.0846 12.4302,34.2621 12.4302,35.7141 Z" id="Stroke-7" stroke-width="1.87599925"></path>
                        <path d="M35.8194,12.39525 C34.3674,12.39525 33.1899,11.21775 33.1899,9.76575 C33.1899,8.31375 34.3674,7.13625 35.8194,7.13625 C37.2714,7.13625 38.4489,8.31375 38.4489,9.76575 C38.4489,11.21775 37.2714,12.39525 35.8194,12.39525 Z" id="Stroke-9" stroke-width="1.87599925"></path>
                        <line x1="12.42435" y1="35.7126" x2="21.30435" y2="35.7126" id="Stroke-11" stroke-width="1.87599925"></line>
                        <line x1="25.5999" y1="25.42575" x2="13.0584" y2="12.93075" id="Stroke-13" stroke-width="1.87599925"></line>
                        <line x1="35.8164" y1="12.52635" x2="35.8164" y2="21.19785" id="Stroke-15" stroke-width="1.87599925"></line>
                        <path d="M57.543,62.27025 C57.543,59.58375 59.7195,57.40575 62.406,57.40575 C65.0925,57.40575 67.2705,59.58375 67.2705,62.27025 C67.2705,64.95675 65.0925,67.13475 62.406,67.13475 C59.7195,67.13475 57.543,64.95675 57.543,62.27025 Z" id="Stroke-17" stroke-width="1.87599925"></path>
                        <path d="M59.38425,35.61075 C59.38425,34.15875 60.56175,32.98125 62.01525,32.98125 C63.46725,32.98125 64.64475,34.15875 64.64475,35.61075 C64.64475,37.06275 63.46725,38.24025 62.01525,38.24025 C60.56175,38.24025 59.38425,37.06275 59.38425,35.61075 Z" id="Stroke-19" stroke-width="1.87599925"></path>
                        <path d="M35.7432,58.99185 C37.1952,58.99185 38.3727,60.16935 38.3727,61.62285 C38.3727,63.07485 37.1952,64.25235 35.7432,64.25235 C34.2912,64.25235 33.1137,63.07485 33.1137,61.62285 C33.1137,60.16935 34.2912,58.99185 35.7432,58.99185 Z" id="Stroke-21" stroke-width="1.87599925"></path>
                        <line x1="59.24955" y1="35.67525" x2="50.26005" y2="35.67525" id="Stroke-23" stroke-width="1.87599925"></line>
                        <line x1="45.96345" y1="45.9621" x2="58.50345" y2="58.4556" id="Stroke-25" stroke-width="1.87599925"></line>
                        <line x1="35.7468" y1="58.9026" x2="35.7468" y2="50.1891" id="Stroke-27" stroke-width="1.87599925"></line>
                        <line x1="55.43355" y1="14.94705" x2="45.43905" y2="24.85455" id="Stroke-29" stroke-width="1.87599925"></line>
                        <path d="M0.7503,62.112 C0.7503,57.474 4.5093,53.715 9.1473,53.715 C13.7838,53.715 17.5443,57.474 17.5443,62.112 C17.5443,66.75 13.7838,70.509 9.1473,70.509 C4.5093,70.509 0.7503,66.75 0.7503,62.112 Z" id="Stroke-31" stroke-width="1.87599925"></path>
                        <line x1="16.1655" y1="56.3112" x2="26.16" y2="46.4052" id="Stroke-33" stroke-width="1.87599925"></line>
                    </g>
                </g>
            </g>
        </g>
    </g>
</svg>