<?xml version="1.0" encoding="UTF-8"?>
<svg width="160px" height="72px" viewBox="0 0 160 72" version="1.1" xmlns="http://www.w3.org/2000/svg" xmlns:xlink="http://www.w3.org/1999/xlink">
    <!-- Generator: Sketch 64 (93537) - https://sketch.com -->
    <title>main-logo</title>
    <desc>Created with Sketch.</desc>
    <g id="Landing" stroke="none" stroke-width="1" fill="none" fill-rule="evenodd">
        <g id="Landing---QGX" transform="translate(-80.000000, -50.000000)">
            <g id="Header" transform="translate(80.000000, 48.000000)">
                <g id="main-logo" transform="translate(0.000000, 2.000000)">
                    <path d="M90.80513,15.21565 L90.80513,1.43125 C80.45653,1.43585 71.16453,5.95425 64.78693,13.12285 C68.03013,17.30025 70.41803,22.17555 71.68243,27.48755 C75.00863,20.24965 82.31913,15.22185 90.80513,15.21565 L90.80513,15.21565 Z M111.55813,33.35345 L93.93573,33.35345 L93.93573,46.91925 L108.77643,46.91925 C105.13523,53.03765 98.45683,57.13785 90.81993,57.13785 C79.28723,57.13785 69.93853,47.78905 69.93853,36.25625 C69.93853,36.15795 69.93353,36.06005 69.93493,35.96225 C69.75403,14.29825 49.65173,-2.65315 27.08843,2.26685 C14.02683,5.11485 3.76203,15.39795 0.93123,28.46335 C-3.97497,51.10805 13.14393,71.10725 34.93373,71.10725 C41.44363,71.10725 47.53543,69.32095 52.74833,66.21345 L55.76753,70.92005 L74.83003,70.92005 L74.74363,70.78545 C64.76373,65.82525 57.24003,56.66565 54.48593,45.61685 L54.54293,45.61485 L39.53413,45.61485 L45.30203,54.60675 C41.76843,56.60875 37.59943,57.61885 33.17233,57.25925 C22.97703,56.43105 14.78893,48.26305 13.93803,38.06955 C12.89853,25.61545 22.69823,15.18695 34.93373,15.18695 C46.47293,15.18695 55.68853,24.46155 55.84733,35.96225 L55.84733,36.22315 C55.84733,55.46375 71.58103,71.10625 90.82103,71.10625 C101.87023,71.10625 112.66303,65.01485 119.85123,56.17625 L123.11063,51.57485 C123.31773,51.23615 123.51773,50.89375 123.71423,50.54965 L111.55813,33.35345 Z" id="Fill-3" fill="#FFFFFF"></path>
                    <polygon id="Fill-5" fill="#FFB200" points="109.49028 1.47854 91.74038 1.47854 140.70968 70.95484 158.35108 70.95484"></polygon>
                    <polygon id="Fill-7" fill="#FFFFFF" points="135.38735 34.65637 159.67435 0.07347 142.16455 0.12217 126.63095 22.19607"></polygon>
                </g>
            </g>
        </g>
    </g>
</svg>