<?xml version="1.0" encoding="UTF-8"?>
<svg width="130px" height="58px" viewBox="0 0 130 58" version="1.1" xmlns="http://www.w3.org/2000/svg" xmlns:xlink="http://www.w3.org/1999/xlink">
    <!-- Generator: Sketch 64 (93537) - https://sketch.com -->
    <title>subtle-logo</title>
    <desc>Created with Sketch.</desc>
    <g id="Landing" stroke="none" stroke-width="1" fill="none" fill-rule="evenodd" opacity="0.238513765">
        <g id="Landing---QGX" transform="translate(-655.000000, -6973.000000)" fill="#FFFFFF">
            <g id="Footer" transform="translate(158.000000, 6973.000000)">
                <g id="subtle-logo" transform="translate(497.000000, 0.000000)">
                    <path d="M73.7791681,12.3627156 L73.7791681,1.16289063 C65.3709306,1.16662813 57.8211806,4.83782813 52.6393806,10.6623156 C55.2744806,14.0564531 57.2146494,18.0176344 58.2419744,22.3336344 C60.9445119,16.4528406 66.8842931,12.3677531 73.7791681,12.3627156 L73.7791681,12.3627156 Z M90.6409806,27.0996781 L76.3227806,27.0996781 L76.3227806,38.1218906 L88.3808494,38.1218906 C85.4223744,43.0930906 79.9961744,46.4245031 73.7911931,46.4245031 C64.4208744,46.4245031 56.8250556,38.8286031 56.8250556,29.4582031 C56.8250556,29.3783344 56.8209931,29.2987906 56.8221306,29.2193281 C56.6751494,11.6173281 40.3420306,-2.15568437 22.0093494,1.84181563 C11.3967994,4.15581563 3.05664937,12.5108344 0.756624375,23.1264719 C-3.22966313,41.5252906 10.6794431,57.7746406 28.3836556,57.7746406 C33.6729494,57.7746406 38.6225369,56.3232719 42.8580181,53.7984281 L45.3111181,57.6225406 L60.7993994,57.6225406 L60.7291994,57.5131781 C52.6205306,53.4830156 46.5075244,46.0408406 44.2698181,37.0636906 L44.3161306,37.0620656 L32.1214806,37.0620656 L36.8078994,44.3679844 C33.9368494,45.9946094 30.5495369,46.8153156 26.9525181,46.5231406 C18.6688369,45.8502281 12.0160056,39.2137281 11.3246494,30.9315094 C10.4800556,20.8125531 18.4423119,12.3393969 28.3836556,12.3393969 C37.7592556,12.3393969 45.2469306,19.8750094 45.3759556,29.2193281 L45.3759556,29.4313094 C45.3759556,45.0642969 58.1595869,57.7738281 73.7920869,57.7738281 C82.7695619,57.7738281 91.5387119,52.8245656 97.3791244,45.6432031 L100.027387,41.9045656 C100.195656,41.6293719 100.358156,41.3511719 100.517812,41.0715906 L90.6409806,27.0996781 Z" id="Fill-3"></path>
                    <polygon id="Fill-5" fill-opacity="0.636773383" points="88.9608525 1.20131375 74.5390588 1.20131375 114.326615 57.6508075 128.660253 57.6508075"></polygon>
                    <polygon id="Fill-7" points="110.002222 28.1583006 129.735409 0.059694375 115.508697 0.099263125 102.887647 18.0343069"></polygon>
                </g>
            </g>
        </g>
    </g>
</svg>